<svg xmlns="http://www.w3.org/2000/svg" xmlns:xlink="http://www.w3.org/1999/xlink" width="500" zoomAndPan="magnify" viewBox="0 0 375 374.999991" height="500" preserveAspectRatio="xMidYMid meet" version="1.0"><defs><clipPath id="bf34d3e0b5"><path d="M 2.390625 5 L 316 5 L 316 368.25 L 2.390625 368.25 Z M 2.390625 5 " clip-rule="nonzero"/></clipPath><clipPath id="fb7b650cf8"><path d="M 57 0 L 370.640625 0 L 370.640625 367 L 57 367 Z M 57 0 " clip-rule="nonzero"/></clipPath></defs><g clip-path="url(#bf34d3e0b5)"><path fill="#000000" d="M 253.675781 210.515625 L 305.097656 131.84375 L 305.097656 251.191406 L 315.265625 251.191406 L 315.265625 116.882812 L 302.601562 116.882812 L 251.757812 195.167969 L 200.332031 116.882812 C 195.34375 116.882812 193.046875 116.882812 188.054688 116.882812 L 188.054688 358.640625 C 187.546875 358.648438 187.039062 358.671875 186.523438 358.671875 C 90.28125 358.671875 11.984375 280.375 11.984375 184.132812 C 11.984375 103.027344 67.59375 34.671875 142.683594 15.175781 L 142.683594 5.316406 C 62.253906 25.039062 2.390625 97.710938 2.390625 184.132812 C 2.390625 285.667969 84.996094 368.273438 186.523438 368.273438 C 190.519531 368.273438 194.472656 368.097656 198.40625 367.847656 L 198.40625 360.015625 L 198.414062 360.015625 L 198.414062 131.84375 L 250.226562 210.515625 Z M 253.675781 210.515625 " fill-opacity="1" fill-rule="nonzero"/></g><g clip-path="url(#fb7b650cf8)"><path fill="#ff1616" d="M 186.523438 0 C 174.816406 0 163.378906 1.144531 152.277344 3.246094 L 152.277344 126.644531 C 140.894531 116.785156 127.617188 114.980469 112.84375 114.980469 C 90.777344 114.980469 61.246094 123.792969 61.808594 152.191406 C 61.808594 176.9375 86.945312 181.941406 111.515625 186.726562 C 133.5625 190.949219 155.828125 195.363281 155.628906 215.496094 C 155.628906 239.308594 129.335938 243.898438 112.84375 243.898438 C 96.351562 243.898438 75.238281 235.84375 66.988281 219.546875 L 57.78125 224.144531 C 68.140625 244.6875 91.929688 253.308594 112.84375 253.308594 C 135.304688 253.308594 165.8125 246.019531 165.988281 215.703125 C 165.988281 186.734375 139.136719 182.121094 113.230469 177.140625 C 90.570312 172.917969 72.167969 168.890625 72.167969 151.804688 C 72.167969 130.320312 97.109375 124.558594 112.84375 124.558594 C 127.382812 124.753906 142.464844 126.863281 152.277344 140.921875 C 152.695312 141.507812 153.105469 142.144531 153.519531 142.796875 L 161.855469 137.875 L 161.960938 137.804688 C 161.917969 137.761719 161.894531 137.699219 161.855469 137.652344 L 161.855469 11.375 C 169.917969 10.222656 178.152344 9.59375 186.523438 9.59375 C 282.765625 9.59375 361.0625 87.890625 361.0625 184.132812 C 361.0625 273.101562 294.140625 346.683594 208 357.308594 L 208 366.976562 C 299.449219 356.296875 370.65625 278.402344 370.65625 184.132812 C 370.664062 82.605469 288.058594 0 186.523438 0 Z M 186.523438 0 " fill-opacity="1" fill-rule="nonzero"/></g></svg>