<svg xmlns="http://www.w3.org/2000/svg" xmlns:xlink="http://www.w3.org/1999/xlink" width="40" zoomAndPan="magnify" viewBox="0 0 30 30.000001" height="40" preserveAspectRatio="xMidYMid meet" version="1.0"><defs><clipPath id="d4882a40e5"><path d="M 4 2.902344 L 29.515625 2.902344 L 29.515625 10 L 4 10 Z M 4 2.902344 " clip-rule="nonzero"/></clipPath><clipPath id="21b200c33b"><path d="M 0.484375 19 L 26 19 L 26 26.128906 L 0.484375 26.128906 Z M 0.484375 19 " clip-rule="nonzero"/></clipPath></defs><g clip-path="url(#d4882a40e5)"><path fill="#020627" d="M 9.253906 2.902344 L 29.503906 2.902344 L 24.777344 9.320312 L 4.527344 9.320312 Z M 9.253906 2.902344 " fill-opacity="1" fill-rule="evenodd"/></g><path fill="#fd0000" d="M 4.527344 9.320312 L 14.652344 9.320312 L 9.53125 16.246094 L 5.082031 10.085938 Z M 4.527344 9.320312 " fill-opacity="1" fill-rule="evenodd"/><g clip-path="url(#21b200c33b)"><path fill="#020627" d="M 20.75 26.128906 L 0.5 26.128906 L 5.234375 19.714844 L 25.484375 19.714844 Z M 20.75 26.128906 " fill-opacity="1" fill-rule="evenodd"/></g><path fill="#fd0000" d="M 25.484375 19.714844 L 15.359375 19.714844 L 20.472656 12.785156 L 24.929688 18.945312 Z M 25.484375 19.714844 " fill-opacity="1" fill-rule="evenodd"/></svg>