<svg xmlns="http://www.w3.org/2000/svg" xmlns:xlink="http://www.w3.org/1999/xlink" width="500" zoomAndPan="magnify" viewBox="0 0 375 374.999991" height="500" preserveAspectRatio="xMidYMid meet" version="1.0"><defs><clipPath id="0129c692e9"><path d="M 0 8 L 313 8 L 313 371.78125 L 0 371.78125 Z M 0 8 " clip-rule="nonzero"/></clipPath><clipPath id="c0675218ce"><path d="M 55 3.53125 L 368.25 3.53125 L 368.25 371 L 55 371 Z M 55 3.53125 " clip-rule="nonzero"/></clipPath></defs><g clip-path="url(#0129c692e9)"><path fill="#ffffff" d="M 251.285156 214.046875 L 302.707031 135.375 L 302.707031 254.722656 L 312.875 254.722656 L 312.875 120.414062 L 300.210938 120.414062 L 249.363281 198.695312 L 197.941406 120.414062 C 192.953125 120.414062 190.652344 120.414062 185.664062 120.414062 L 185.664062 362.171875 C 185.15625 362.179688 184.648438 362.203125 184.132812 362.203125 C 87.890625 362.203125 9.59375 283.902344 9.59375 187.664062 C 9.59375 106.558594 65.203125 38.203125 140.292969 18.703125 L 140.292969 8.847656 C 59.863281 28.570312 0 101.242188 0 187.664062 C 0 289.195312 82.605469 371.804688 184.132812 371.804688 C 188.128906 371.804688 192.078125 371.628906 196.015625 371.378906 L 196.015625 363.542969 L 196.023438 363.542969 L 196.023438 135.375 L 247.832031 214.046875 Z M 251.285156 214.046875 " fill-opacity="1" fill-rule="nonzero"/></g><g clip-path="url(#c0675218ce)"><path fill="#ff1616" d="M 184.132812 3.53125 C 172.421875 3.53125 160.988281 4.675781 149.886719 6.777344 L 149.886719 130.171875 C 138.503906 120.316406 125.226562 118.507812 110.453125 118.507812 C 88.382812 118.507812 58.855469 127.320312 59.414062 155.722656 C 59.414062 180.464844 84.554688 185.472656 109.125 190.257812 C 131.171875 194.480469 153.433594 198.894531 153.238281 219.027344 C 153.238281 242.839844 126.945312 247.425781 110.453125 247.425781 C 93.957031 247.425781 72.847656 239.375 64.59375 223.078125 L 55.390625 227.671875 C 65.75 248.214844 89.539062 256.839844 110.453125 256.839844 C 132.914062 256.839844 163.421875 249.550781 163.597656 219.230469 C 163.597656 190.265625 136.742188 185.652344 110.839844 180.671875 C 88.179688 176.445312 69.773438 172.421875 69.773438 155.335938 C 69.773438 133.851562 94.714844 128.085938 110.453125 128.085938 C 124.988281 128.285156 140.074219 130.394531 149.886719 144.453125 C 150.304688 145.035156 150.710938 145.671875 151.128906 146.324219 L 159.464844 141.402344 L 159.570312 141.335938 C 159.523438 141.289062 159.5 141.230469 159.464844 141.183594 L 159.464844 14.90625 C 167.523438 13.753906 175.761719 13.125 184.132812 13.125 C 280.375 13.125 358.671875 91.421875 358.671875 187.664062 C 358.671875 276.632812 291.75 350.210938 205.609375 360.835938 L 205.609375 370.507812 C 297.058594 359.828125 368.265625 281.933594 368.265625 187.664062 C 368.273438 86.136719 285.667969 3.53125 184.132812 3.53125 Z M 184.132812 3.53125 " fill-opacity="1" fill-rule="nonzero"/></g></svg>